<?xml version="1.0" encoding="UTF-8" standalone="no"?>
<svg width="24px" height="24px" viewBox="0 0 24 24" version="1.1" xmlns="http://www.w3.org/2000/svg" xmlns:xlink="http://www.w3.org/1999/xlink" xmlns:sketch="http://www.bohemiancoding.com/sketch/ns">
    <!-- Generator: Sketch 3.3.2 (12043) - http://www.bohemiancoding.com/sketch -->
    <title>at</title>
    <desc>Created with Sketch.</desc>
    <defs></defs>
    <g id="Iconset" stroke="none" stroke-width="1" fill="none" fill-rule="evenodd" sketch:type="MSPage">
        <g id="at" sketch:type="MSArtboardGroup" fill="#818181">
            <path d="M16.2159273,8.56877211 L15.1131438,8.28865056 L14.6150416,9.39228867 C14.3936618,8.80628319 14.0876413,8.39282997 13.696971,8.15191661 C13.3063006,7.91100325 12.8830808,7.79054837 12.4272988,7.79054837 C11.7371145,7.79054837 11.1087959,7.95332523 10.5423239,8.27888383 C9.97585195,8.60444243 9.49403245,9.02766226 9.09685096,9.54855601 C8.69966947,10.0694498 8.39039344,10.6619575 8.1690136,11.3260971 C7.94763375,11.9902366 7.83694549,12.6608773 7.83694549,13.3380391 C7.83694549,13.7677765 7.90531177,14.1714631 8.04204638,14.5491111 C8.17878099,14.9267591 8.36760214,15.2523128 8.60851551,15.525782 C8.84942887,15.7992512 9.14242721,16.0173722 9.48751933,16.1801515 C9.83261144,16.3429308 10.2135093,16.4243192 10.6302243,16.4243192 C11.112051,16.4243192 11.5613151,16.2908422 11.9780302,16.0238842 C12.3947452,15.7569261 12.7528542,15.4541611 13.0523682,15.1155802 L13.1109684,15.1155802 C13.1370131,15.5453176 13.2672346,15.8643602 13.5016368,16.0727177 C13.736039,16.2810752 14.0225262,16.3852524 14.3611072,16.3852524 C14.8168892,16.3852524 15.3117309,16.2485198 15.845647,15.9750506 C16.3795631,15.7015814 16.8744047,15.317428 17.3301867,14.8225789 C17.7859688,14.3277299 18.1668666,13.7319666 18.4728917,13.0352712 C18.7789168,12.3385758 18.931927,11.5670135 18.931927,10.7205611 C18.931927,9.83504172 18.756128,9.02441297 18.4045247,8.28865054 C18.0529215,7.55288811 17.5743575,6.9213139 16.9688185,6.39390897 C16.3632795,5.86650404 15.656828,5.45305082 14.8494426,5.15353691 C14.0420573,4.854023 13.1891066,4.70426829 12.2905648,4.70426829 C11.3008667,4.70426829 10.3665275,4.89308945 9.48751933,5.27073742 C8.60851111,5.6483854 7.84020434,6.1660158 7.18257598,6.82364417 C6.52494761,7.48127254 6.00406166,8.24957931 5.61990252,9.12858752 C5.23574337,10.0075957 5.06807296,11.0461129 5.06807296,12.0488334 C5.06807296,13.0906209 5.23248783,13.9598485 5.61013581,14.8518791 C5.98778378,15.7439096 6.50541419,16.5187275 7.16304256,17.1763558 C7.82067093,17.8339842 8.59548877,18.3516146 9.48751933,18.7292626 C10.3795499,19.1069106 11.3399333,19.2957317 12.3686985,19.2957317 C12.993771,19.2957317 13.605812,19.2208544 14.2048398,19.0710974 C14.8038676,18.9213404 15.3670756,18.6999639 15.8944805,18.4069612 C16.4218854,18.1139584 16.9069605,17.7558494 17.3497202,17.3326232 C17.7924799,16.909397 18.6541745,15.9750508 18.2463376,15.7565916 C17.8385007,15.5381325 17.4278533,16.0492295 16.7051169,16.6127928 C15.9823806,17.1763562 15.9791296,17.166587 15.1131438,17.5963243 C14.2471579,18.0260617 13.3453741,18.2409271 12.4077654,18.2409271 C11.5873577,18.2409271 10.8125398,18.0814058 10.0832886,17.7623584 C9.35403732,17.443311 8.7126965,17.007069 8.15924689,16.4536194 C7.60579727,15.9001697 7.16955529,15.2458068 6.85050787,14.4905108 C6.53146044,13.7352149 6.37193912,12.9213306 6.37193912,12.0488335 C6.37193912,11.1893588 6.52494937,10.3819856 6.83097445,9.62668969 C7.13699953,8.87139374 7.55696382,8.20726416 8.09087992,7.63428103 C8.62479602,7.06129789 9.25311469,6.60877823 9.97585478,6.27670846 C10.6985949,5.94463869 11.4766682,5.7786063 12.3100983,5.7786063 C13.0002825,5.7786063 13.6611565,5.89580563 14.2927402,6.13020782 C14.9243239,6.36461001 15.4875318,6.69993034 15.9823809,7.13617886 C16.47723,7.57242738 16.87115,8.10307994 17.1641527,8.72815245 C17.4571554,9.35322496 17.6036546,10.0499099 17.6036546,10.8182282 C17.6036546,11.339122 17.5190106,11.866519 17.3497202,12.4004351 C17.1804297,12.9343512 16.9655642,13.4161707 16.7051174,13.845908 C16.4446705,14.2756454 16.1549277,14.6272434 15.8358802,14.9007126 C15.5168328,15.1741818 15.2075568,15.3109144 14.9080429,15.3109144 C14.5955066,15.3109144 14.4392408,15.1090711 14.4392408,14.7053784 C14.4392408,14.5621326 14.4620296,14.4026113 14.5076078,14.2268097 C14.553186,14.051008 14.6020191,13.8784646 14.6541084,13.7091741 L16.2159273,8.56877211 Z M12.4272988,9.11882081 C12.6356563,9.11882081 12.834244,9.17090941 13.023068,9.27508816 C13.211892,9.37926691 13.3811799,9.51274393 13.5309369,9.67552323 C13.6806939,9.83830253 13.7978932,10.0303792 13.8825384,10.2517591 C13.9671837,10.4731389 14.0095056,10.7010265 14.0095056,10.9354287 C14.0095056,11.3391214 13.9313728,11.7818744 13.7751046,12.2637011 C13.6188365,12.7455279 13.403971,13.1980475 13.1305018,13.6212737 C12.8570326,14.0444999 12.53799,14.3960979 12.1733643,14.6760783 C11.8087387,14.9560587 11.4115632,15.0960468 10.9818258,15.0960468 C10.4869768,15.0960468 10.0832901,14.9169922 9.77075389,14.5588778 C9.45821764,14.2007633 9.30195185,13.7482437 9.30195185,13.2013052 C9.30195185,12.7715679 9.38008474,12.3190482 9.53635287,11.8437327 C9.692621,11.3684171 9.90748645,10.9289196 10.1809557,10.5252269 C10.4544249,10.1215343 10.7832341,9.78621394 11.1673933,9.51925589 C11.5515524,9.25229783 11.9715167,9.11882081 12.4272988,9.11882081 L12.4272988,9.11882081 Z" id="@" sketch:type="MSShapeGroup"></path>
        </g>
    </g>
</svg>