<?xml version="1.0" encoding="UTF-8" standalone="no"?>
<svg width="24px" height="24px" viewBox="0 0 24 24" version="1.1" xmlns="http://www.w3.org/2000/svg" xmlns:xlink="http://www.w3.org/1999/xlink" xmlns:sketch="http://www.bohemiancoding.com/sketch/ns">
    <!-- Generator: Sketch 3.3.2 (12043) - http://www.bohemiancoding.com/sketch -->
    <title>sharp</title>
    <desc>Created with Sketch.</desc>
    <defs></defs>
    <g id="Iconset" stroke="none" stroke-width="1" fill="none" fill-rule="evenodd" sketch:type="MSPage">
        <g id="sharp" sketch:type="MSArtboardGroup" fill="#818181">
            <path d="M11.1371118,10.6138711 L13.4136679,10.6138711 L13.0281221,13.3677696 L10.751566,13.3677696 L11.1371118,10.6138711 Z M9.30117953,14.6162035 L8.76875916,18.398224 L10.0355524,18.398224 L10.5679728,14.6162035 L12.8445289,14.6162035 L12.3121085,18.398224 L13.5789018,18.398224 L14.1113221,14.6162035 L15.9656138,14.6162035 L15.9656138,13.3677696 L14.2949154,13.3677696 L14.6804611,10.6138711 L16.4796748,10.6138711 L16.4796748,9.36543716 L14.8456951,9.36543716 L15.3781154,5.60177596 L14.1113221,5.60177596 L13.5789018,9.36543716 L11.3023457,9.36543716 L11.8347661,5.60177596 L10.5679728,5.60177596 L10.0355524,9.36543716 L7.9976676,9.36543716 L7.9976676,10.6138711 L9.87031854,10.6138711 L9.48477276,13.3677696 L7.5203252,13.3677696 L7.5203252,14.6162035 L9.30117953,14.6162035 Z" id="#" sketch:type="MSShapeGroup"></path>
        </g>
    </g>
</svg>